{
  "accessors": [
    {
      "bufferView": 2,
      "componentType": 5126,
      "count": 65532,
      "max": [
        4949.33251953125,
        6650.861328125,
        5547.22998046875
      ],
      "min": [
        -5540.69287109375,
        40.02391052246094,
        -8320.9541015625
      ],
      "type": "VEC3"
    },
    {
      "bufferView": 2,
      "byteOffset": 786384,
      "componentType": 5126,
      "count": 65532,
      "max": [
        1.0,
        1.0,
        1.0
      ],
      "min": [
        -1.0,
        -1.0,
        -1.0
      ],
      "type": "VEC3"
    },
    {
      "bufferView": 1,
      "componentType": 5126,
      "count": 65532,
      "max": [
        0.9980172514915466,
        0.9725452661514282
      ],
      "min": [
        0.000499509449582547,
        0.002592449076473713
      ],
      "type": "VEC2"
    },
    {
      "bufferView": 1,
      "byteOffset": 524256,
      "componentType": 5126,
      "count": 65532,
      "max": [
        1.0559465885162354,
        4.199371337890625
      ],
      "min": [
        -1.8302995385965914e-06,
        0.0
      ],
      "type": "VEC2"
    },
    {
      "bufferView": 1,
      "byteOffset": 1048512,
      "componentType": 5126,
      "count": 65532,
      "max": [
        1.0,
        4.199371337890625
      ],
      "min": [
        -1.8302995385965914e-06,
        0.0
      ],
      "type": "VEC2"
    },
    {
      "bufferView": 1,
      "byteOffset": 1572768,
      "componentType": 5126,
      "count": 65532,
      "max": [
        1.0,
        4.199371337890625
      ],
      "min": [
        -1.8302995385965914e-06,
        0.0
      ],
      "type": "VEC2"
    },
    {
      "bufferView": 0,
      "componentType": 5125,
      "count": 126567,
      "type": "SCALAR"
    },
    {
      "bufferView": 2,
      "byteOffset": 1572768,
      "componentType": 5126,
      "count": 65532,
      "max": [
        4949.33251953125,
        3268.83984375,
        10662.12890625
      ],
      "min": [
        -3537.432861328125,
        40.02391052246094,
        -8340.6923828125
      ],
      "type": "VEC3"
    },
    {
      "bufferView": 2,
      "byteOffset": 2359152,
      "componentType": 5126,
      "count": 65532,
      "max": [
        1.0,
        1.0,
        1.0
      ],
      "min": [
        -1.0,
        -1.0,
        -1.0
      ],
      "type": "VEC3"
    },
    {
      "bufferView": 1,
      "byteOffset": 2097024,
      "componentType": 5126,
      "count": 65532,
      "max": [
        0.9980159401893616,
        0.972253143787384
      ],
      "min": [
        0.000499509449582547,
        0.0030882081482559443
      ],
      "type": "VEC2"
    },
    {
      "bufferView": 1,
      "byteOffset": 2621280,
      "componentType": 5126,
      "count": 65532,
      "max": [
        1.0,
        4.199371337890625
      ],
      "min": [
        -1.8302995385965914e-06,
        0.0
      ],
      "type": "VEC2"
    },
    {
      "bufferView": 1,
      "byteOffset": 3145536,
      "componentType": 5126,
      "count": 65532,
      "max": [
        1.0,
        4.199371337890625
      ],
      "min": [
        -1.8302995385965914e-06,
        0.0
      ],
      "type": "VEC2"
    },
    {
      "bufferView": 1,
      "byteOffset": 3669792,
      "componentType": 5126,
      "count": 65532,
      "max": [
        1.0,
        4.199371337890625
      ],
      "min": [
        -1.8302995385965914e-06,
        0.0
      ],
      "type": "VEC2"
    },
    {
      "bufferView": 0,
      "byteOffset": 506268,
      "componentType": 5125,
      "count": 127368,
      "type": "SCALAR"
    },
    {
      "bufferView": 2,
      "byteOffset": 3145536,
      "componentType": 5126,
      "count": 11255,
      "max": [
        -1247.4310302734375,
        6613.9296875,
        -4252.5673828125
      ],
      "min": [
        -5540.69287109375,
        40.02391052246094,
        -8340.6923828125
      ],
      "type": "VEC3"
    },
    {
      "bufferView": 2,
      "byteOffset": 3280596,
      "componentType": 5126,
      "count": 11255,
      "max": [
        1.0,
        1.0,
        1.0
      ],
      "min": [
        -1.0,
        -1.0,
        -1.0
      ],
      "type": "VEC3"
    },
    {
      "bufferView": 1,
      "byteOffset": 4194048,
      "componentType": 5126,
      "count": 11255,
      "max": [
        0.9980159401893616,
        0.9725452661514282
      ],
      "min": [
        0.000499509449582547,
        0.0030882081482559443
      ],
      "type": "VEC2"
    },
    {
      "bufferView": 1,
      "byteOffset": 4284088,
      "componentType": 5126,
      "count": 11255,
      "max": [
        1.0,
        4.199371337890625
      ],
      "min": [
        -1.8302995385965914e-06,
        0.0
      ],
      "type": "VEC2"
    },
    {
      "bufferView": 1,
      "byteOffset": 4374128,
      "componentType": 5126,
      "count": 11255,
      "max": [
        1.0,
        4.199371337890625
      ],
      "min": [
        -1.8302995385965914e-06,
        0.0
      ],
      "type": "VEC2"
    },
    {
      "bufferView": 1,
      "byteOffset": 4464168,
      "componentType": 5126,
      "count": 11255,
      "max": [
        1.0,
        4.199371337890625
      ],
      "min": [
        -1.8302995385965914e-06,
        0.0
      ],
      "type": "VEC2"
    },
    {
      "bufferView": 0,
      "byteOffset": 1015740,
      "componentType": 5125,
      "count": 21915,
      "type": "SCALAR"
    },
    {
      "bufferView": 2,
      "byteOffset": 3415656,
      "componentType": 5126,
      "count": 65532,
      "max": [
        4958.7900390625,
        7184.6259765625,
        8572.46875
      ],
      "min": [
        -5550.69287109375,
        40.02391052246094,
        -8350.6923828125
      ],
      "type": "VEC3"
    },
    {
      "bufferView": 2,
      "byteOffset": 4202040,
      "componentType": 5126,
      "count": 65532,
      "max": [
        1.0,
        1.0,
        1.0
      ],
      "min": [
        -1.0,
        -1.0,
        -1.0
      ],
      "type": "VEC3"
    },
    {
      "bufferView": 1,
      "byteOffset": 4554208,
      "componentType": 5126,
      "count": 65532,
      "max": [
        0.999500572681427,
        0.9723376631736755
      ],
      "min": [
        0.0004995192284695804,
        0.00048602026072330773
      ],
      "type": "VEC2"
    },
    {
      "bufferView": 1,
      "byteOffset": 5078464,
      "componentType": 5126,
      "count": 65532,
      "max": [
        0.9940491318702698,
        0.9945591688156128
      ],
      "min": [
        0.0024650574196130037,
        0.049034394323825836
      ],
      "type": "VEC2"
    },
    {
      "bufferView": 1,
      "byteOffset": 5602720,
      "componentType": 5126,
      "count": 65532,
      "max": [
        0.0,
        0.0
      ],
      "min": [
        0.0,
        0.0
      ],
      "type": "VEC2"
    },
    {
      "bufferView": 1,
      "byteOffset": 6126976,
      "componentType": 5126,
      "count": 65532,
      "max": [
        0.0,
        0.0
      ],
      "min": [
        0.0,
        0.0
      ],
      "type": "VEC2"
    },
    {
      "bufferView": 0,
      "byteOffset": 1103400,
      "componentType": 5125,
      "count": 98346,
      "type": "SCALAR"
    },
    {
      "bufferView": 2,
      "byteOffset": 4988424,
      "componentType": 5126,
      "count": 38570,
      "max": [
        4958.7900390625,
        7221.5576171875,
        10652.46875
      ],
      "min": [
        -650.6928100585938,
        40.02391052246094,
        -8330.6953125
      ],
      "type": "VEC3"
    },
    {
      "bufferView": 2,
      "byteOffset": 5451264,
      "componentType": 5126,
      "count": 38570,
      "max": [
        1.0,
        1.0,
        1.0
      ],
      "min": [
        -1.0,
        -1.0,
        -1.0
      ],
      "type": "VEC3"
    },
    {
      "bufferView": 1,
      "byteOffset": 6651232,
      "componentType": 5126,
      "count": 38570,
      "max": [
        0.999500572681427,
        0.9723376631736755
      ],
      "min": [
        0.0004995192284695804,
        0.00048602026072330773
      ],
      "type": "VEC2"
    },
    {
      "bufferView": 1,
      "byteOffset": 6959792,
      "componentType": 5126,
      "count": 38570,
      "max": [
        0.9940491318702698,
        0.9945591688156128
      ],
      "min": [
        0.0024650574196130037,
        0.049034394323825836
      ],
      "type": "VEC2"
    },
    {
      "bufferView": 1,
      "byteOffset": 7268352,
      "componentType": 5126,
      "count": 38570,
      "max": [
        0.0,
        0.0
      ],
      "min": [
        0.0,
        0.0
      ],
      "type": "VEC2"
    },
    {
      "bufferView": 1,
      "byteOffset": 7576912,
      "componentType": 5126,
      "count": 38570,
      "max": [
        0.0,
        0.0
      ],
      "min": [
        0.0,
        0.0
      ],
      "type": "VEC2"
    },
    {
      "bufferView": 0,
      "byteOffset": 1496784,
      "componentType": 5125,
      "count": 57888,
      "type": "SCALAR"
    },
    {
      "bufferView": 2,
      "byteOffset": 5914104,
      "componentType": 5126,
      "count": 33852,
      "max": [
        5025.919921875,
        6510.71630859375,
        10640.908203125
      ],
      "min": [
        -5550.69189453125,
        87.52433013916016,
        -8417.3720703125
      ],
      "type": "VEC3"
    },
    {
      "bufferView": 2,
      "byteOffset": 6320328,
      "componentType": 5126,
      "count": 33852,
      "max": [
        1.0,
        1.0,
        1.0
      ],
      "min": [
        -1.0,
        -1.0,
        -1.0
      ],
      "type": "VEC3"
    },
    {
      "bufferView": 1,
      "byteOffset": 7885472,
      "componentType": 5126,
      "count": 33852,
      "max": [
        0.9901961088180542,
        0.9901961088180542
      ],
      "min": [
        0.004206281155347824,
        0.009670996107161045
      ],
      "type": "VEC2"
    },
    {
      "bufferView": 1,
      "byteOffset": 8156288,
      "componentType": 5126,
      "count": 33852,
      "max": [
        1.0,
        1.0
      ],
      "min": [
        0.0,
        0.0
      ],
      "type": "VEC2"
    },
    {
      "bufferView": 1,
      "byteOffset": 8427104,
      "componentType": 5126,
      "count": 33852,
      "max": [
        0.0,
        0.0
      ],
      "min": [
        0.0,
        0.0
      ],
      "type": "VEC2"
    },
    {
      "bufferView": 1,
      "byteOffset": 8697920,
      "componentType": 5126,
      "count": 33852,
      "max": [
        0.0,
        0.0
      ],
      "min": [
        0.0,
        0.0
      ],
      "type": "VEC2"
    },
    {
      "bufferView": 0,
      "byteOffset": 1728336,
      "componentType": 5125,
      "count": 50100,
      "type": "SCALAR"
    },
    {
      "bufferView": 2,
      "byteOffset": 6726552,
      "componentType": 5126,
      "count": 24,
      "max": [
        3421.020263671875,
        6461.05078125,
        -7728.001953125
      ],
      "min": [
        3027.377685546875,
        389.149169921875,
        -8309.8046875
      ],
      "type": "VEC3"
    },
    {
      "bufferView": 2,
      "byteOffset": 6726840,
      "componentType": 5126,
      "count": 24,
      "max": [
        1.0,
        1.0,
        1.0
      ],
      "min": [
        -1.0,
        -1.0,
        -1.0
      ],
      "type": "VEC3"
    },
    {
      "bufferView": 1,
      "byteOffset": 8968736,
      "componentType": 5126,
      "count": 24,
      "max": [
        1.0,
        1.0
      ],
      "min": [
        0.0,
        0.0
      ],
      "type": "VEC2"
    },
    {
      "bufferView": 1,
      "byteOffset": 8968928,
      "componentType": 5126,
      "count": 24,
      "max": [
        0.9966580867767334,
        0.6528358459472656
      ],
      "min": [
        0.004055766388773918,
        0.004055766388773918
      ],
      "type": "VEC2"
    },
    {
      "bufferView": 1,
      "byteOffset": 8969120,
      "componentType": 5126,
      "count": 24,
      "max": [
        0.0,
        0.0
      ],
      "min": [
        0.0,
        0.0
      ],
      "type": "VEC2"
    },
    {
      "bufferView": 1,
      "byteOffset": 8969312,
      "componentType": 5126,
      "count": 24,
      "max": [
        0.0,
        0.0
      ],
      "min": [
        0.0,
        0.0
      ],
      "type": "VEC2"
    },
    {
      "bufferView": 0,
      "byteOffset": 1928736,
      "componentType": 5125,
      "count": 36,
      "type": "SCALAR"
    },
    {
      "bufferView": 2,
      "byteOffset": 6727128,
      "componentType": 5126,
      "count": 24,
      "max": [
        8000.0,
        40.0,
        11000.0
      ],
      "min": [
        -8000.0,
        -40.0,
        -11000.0
      ],
      "type": "VEC3"
    },
    {
      "bufferView": 2,
      "byteOffset": 6727416,
      "componentType": 5126,
      "count": 24,
      "max": [
        1.0,
        1.0,
        1.0
      ],
      "min": [
        -1.0,
        -1.0,
        -1.0
      ],
      "type": "VEC3"
    },
    {
      "bufferView": 1,
      "byteOffset": 8969504,
      "componentType": 5126,
      "count": 24,
      "max": [
        1.0,
        1.0
      ],
      "min": [
        0.0,
        0.0
      ],
      "type": "VEC2"
    },
    {
      "bufferView": 1,
      "byteOffset": 8969696,
      "componentType": 5126,
      "count": 24,
      "max": [
        0.9966580867767334,
        0.6528358459472656
      ],
      "min": [
        0.004055766388773918,
        0.004055766388773918
      ],
      "type": "VEC2"
    },
    {
      "bufferView": 1,
      "byteOffset": 8969888,
      "componentType": 5126,
      "count": 24,
      "max": [
        0.0,
        0.0
      ],
      "min": [
        0.0,
        0.0
      ],
      "type": "VEC2"
    },
    {
      "bufferView": 1,
      "byteOffset": 8970080,
      "componentType": 5126,
      "count": 24,
      "max": [
        0.0,
        0.0
      ],
      "min": [
        0.0,
        0.0
      ],
      "type": "VEC2"
    },
    {
      "bufferView": 0,
      "byteOffset": 1928880,
      "componentType": 5125,
      "count": 36,
      "type": "SCALAR"
    },
    {
      "bufferView": 2,
      "byteOffset": 6727704,
      "componentType": 5126,
      "count": 72,
      "max": [
        -6476.56298828125,
        798.369873046875,
        189.00338745117188
      ],
      "min": [
        -6923.43701171875,
        13.931396484375,
        -1149.00341796875
      ],
      "type": "VEC3"
    },
    {
      "bufferView": 2,
      "byteOffset": 6728568,
      "componentType": 5126,
      "count": 72,
      "max": [
        1.0,
        1.0,
        1.0
      ],
      "min": [
        -1.0,
        -1.0,
        -1.0
      ],
      "type": "VEC3"
    },
    {
      "bufferView": 1,
      "byteOffset": 8970272,
      "componentType": 5126,
      "count": 72,
      "max": [
        1.0,
        1.0
      ],
      "min": [
        0.0,
        0.0
      ],
      "type": "VEC2"
    },
    {
      "bufferView": 1,
      "byteOffset": 8970848,
      "componentType": 5126,
      "count": 72,
      "max": [
        0.9966580867767334,
        0.6528358459472656
      ],
      "min": [
        0.004055766388773918,
        0.004055766388773918
      ],
      "type": "VEC2"
    },
    {
      "bufferView": 1,
      "byteOffset": 8971424,
      "componentType": 5126,
      "count": 72,
      "max": [
        0.0,
        0.0
      ],
      "min": [
        0.0,
        0.0
      ],
      "type": "VEC2"
    },
    {
      "bufferView": 1,
      "byteOffset": 8972000,
      "componentType": 5126,
      "count": 72,
      "max": [
        0.0,
        0.0
      ],
      "min": [
        0.0,
        0.0
      ],
      "type": "VEC2"
    },
    {
      "bufferView": 0,
      "byteOffset": 1929024,
      "componentType": 5125,
      "count": 108,
      "type": "SCALAR"
    }
  ],
  "asset": {
    "extras": {
      "author": "wanglibin (https://sketchfab.com/wanglibin)",
      "license": "CC-BY-4.0 (http://creativecommons.org/licenses/by/4.0/)",
      "source": "https://sketchfab.com/3d-models/residential-district-9b68a138839d4c929ac222c67cff0d5a",
      "title": "Residential District"
    },
    "generator": "Sketchfab-12.67.0",
    "version": "2.0"
  },
  "bufferViews": [
    {
      "buffer": 0,
      "byteLength": 1929456,
      "name": "floatBufferViews",
      "target": 34963
    },
    {
      "buffer": 0,
      "byteLength": 8972576,
      "byteOffset": 1929456,
      "byteStride": 8,
      "name": "floatBufferViews",
      "target": 34962
    },
    {
      "buffer": 0,
      "byteLength": 6729432,
      "byteOffset": 10902032,
      "byteStride": 12,
      "name": "floatBufferViews",
      "target": 34962
    }
  ],
  "buffers": [
    {
      "byteLength": 17631464,
      "uri": "scene.bin"
    }
  ],
  "images": [
    {
      "uri": "textures/Apart_baseColor.png"
    }
  ],
  "materials": [
    {
      "doubleSided": true,
      "name": "Apart",
      "pbrMetallicRoughness": {
        "baseColorTexture": {
          "index": 0
        },
        "metallicFactor": 0.0,
        "roughnessFactor": 0.6
      }
    },
    {
      "doubleSided": true,
      "name": "Metal",
      "pbrMetallicRoughness": {
        "baseColorFactor": [
          0.6568767276701583,
          0.6568767276701583,
          0.6568767276701583,
          1.0
        ],
        "roughnessFactor": 0.0
      }
    },
    {
      "alphaMode": "BLEND",
      "doubleSided": true,
      "name": "glass",
      "pbrMetallicRoughness": {
        "baseColorFactor": [
          0.830882,
          0.93002,
          1.0,
          0.28651516076290245
        ],
        "metallicFactor": 0.0,
        "roughnessFactor": 0.6
      }
    },
    {
      "doubleSided": true,
      "name": "whiteCity",
      "pbrMetallicRoughness": {
        "metallicFactor": 0.0,
        "roughnessFactor": 0.6
      }
    },
    {
      "doubleSided": true,
      "name": "defaultPolygonShader1",
      "pbrMetallicRoughness": {
        "baseColorFactor": [
          0.5,
          0.5,
          0.5,
          1.0
        ],
        "metallicFactor": 0.0,
        "roughnessFactor": 0.6
      }
    },
    {
      "doubleSided": true,
      "name": "Default_Material",
      "pbrMetallicRoughness": {
        "metallicFactor": 0.0,
        "roughnessFactor": 0.6
      }
    }
  ],
  "meshes": [
    {
      "name": "group5_Mid1_polySurface95_Clone__Clone__node_5_Apart_0",
      "primitives": [
        {
          "attributes": {
            "NORMAL": 1,
            "POSITION": 0,
            "TEXCOORD_0": 2,
            "TEXCOORD_1": 3,
            "TEXCOORD_2": 4,
            "TEXCOORD_3": 5
          },
          "indices": 6,
          "material": 0,
          "mode": 4
        }
      ]
    },
    {
      "name": "group5_Mid1_polySurface95_Clone__Clone__node_5_Apart_0",
      "primitives": [
        {
          "attributes": {
            "NORMAL": 8,
            "POSITION": 7,
            "TEXCOORD_0": 9,
            "TEXCOORD_1": 10,
            "TEXCOORD_2": 11,
            "TEXCOORD_3": 12
          },
          "indices": 13,
          "material": 0,
          "mode": 4
        }
      ]
    },
    {
      "name": "group5_Mid1_polySurface95_Clone__Clone__node_5_Apart_0",
      "primitives": [
        {
          "attributes": {
            "NORMAL": 15,
            "POSITION": 14,
            "TEXCOORD_0": 16,
            "TEXCOORD_1": 17,
            "TEXCOORD_2": 18,
            "TEXCOORD_3": 19
          },
          "indices": 20,
          "material": 0,
          "mode": 4
        }
      ]
    },
    {
      "name": "group5_Mid1_polySurface95_Clone__Clone__node_5_Metal_0",
      "primitives": [
        {
          "attributes": {
            "NORMAL": 22,
            "POSITION": 21,
            "TEXCOORD_0": 23,
            "TEXCOORD_1": 24,
            "TEXCOORD_2": 25,
            "TEXCOORD_3": 26
          },
          "indices": 27,
          "material": 1,
          "mode": 4
        }
      ]
    },
    {
      "name": "group5_Mid1_polySurface95_Clone__Clone__node_5_Metal_0",
      "primitives": [
        {
          "attributes": {
            "NORMAL": 29,
            "POSITION": 28,
            "TEXCOORD_0": 30,
            "TEXCOORD_1": 31,
            "TEXCOORD_2": 32,
            "TEXCOORD_3": 33
          },
          "indices": 34,
          "material": 1,
          "mode": 4
        }
      ]
    },
    {
      "name": "group5_Mid1_polySurface95_Clone__Clone__node_5_glass_0",
      "primitives": [
        {
          "attributes": {
            "NORMAL": 36,
            "POSITION": 35,
            "TEXCOORD_0": 37,
            "TEXCOORD_1": 38,
            "TEXCOORD_2": 39,
            "TEXCOORD_3": 40
          },
          "indices": 41,
          "material": 2,
          "mode": 4
        }
      ]
    },
    {
      "name": "group5_Mid1_polySurface95_Clone__Clone__node_5_whiteCity_0",
      "primitives": [
        {
          "attributes": {
            "NORMAL": 43,
            "POSITION": 42,
            "TEXCOORD_0": 44,
            "TEXCOORD_1": 45,
            "TEXCOORD_2": 46,
            "TEXCOORD_3": 47
          },
          "indices": 48,
          "material": 3,
          "mode": 4
        }
      ]
    },
    {
      "name": "group5_Mid1_polySurface95_Clone__Clone__node_5_defaultPolygonShader1_0",
      "primitives": [
        {
          "attributes": {
            "NORMAL": 50,
            "POSITION": 49,
            "TEXCOORD_0": 51,
            "TEXCOORD_1": 52,
            "TEXCOORD_2": 53,
            "TEXCOORD_3": 54
          },
          "indices": 55,
          "material": 4,
          "mode": 4
        }
      ]
    },
    {
      "name": "group5_Mid1_polySurface95_Clone__Clone__node_5_Default_Material_0",
      "primitives": [
        {
          "attributes": {
            "NORMAL": 57,
            "POSITION": 56,
            "TEXCOORD_0": 58,
            "TEXCOORD_1": 59,
            "TEXCOORD_2": 60,
            "TEXCOORD_3": 61
          },
          "indices": 62,
          "material": 5,
          "mode": 4
        }
      ]
    }
  ],
  "nodes": [
    {
      "children": [
        1
      ],
      "matrix": [
        1.0,
        0.0,
        0.0,
        0.0,
        0.0,
        2.220446049250313e-16,
        -1.0,
        0.0,
        0.0,
        1.0,
        2.220446049250313e-16,
        0.0,
        0.0,
        0.0,
        0.0,
        1.0
      ],
      "name": "Sketchfab_model"
    },
    {
      "children": [
        2
      ],
      "matrix": [
        1.0,
        0.0,
        0.0,
        0.0,
        0.0,
        0.0,
        1.0,
        0.0,
        0.0,
        -1.0,
        0.0,
        0.0,
        0.0,
        0.0,
        0.0,
        1.0
      ],
      "name": "13e617d4a37747ee8f5b48939c855a2a.fbx"
    },
    {
      "children": [
        3
      ],
      "name": "RootNode"
    },
    {
      "children": [
        4,
        5,
        6,
        7,
        8,
        9,
        10,
        11,
        12
      ],
      "name": "group5_Mid1_polySurface95_Clone__Clone__node_5"
    },
    {
      "mesh": 0,
      "name": "group5_Mid1_polySurface95_Clone__Clone__node_5_Apart_0"
    },
    {
      "mesh": 1,
      "name": "group5_Mid1_polySurface95_Clone__Clone__node_5_Apart_0"
    },
    {
      "mesh": 2,
      "name": "group5_Mid1_polySurface95_Clone__Clone__node_5_Apart_0"
    },
    {
      "mesh": 3,
      "name": "group5_Mid1_polySurface95_Clone__Clone__node_5_Metal_0"
    },
    {
      "mesh": 4,
      "name": "group5_Mid1_polySurface95_Clone__Clone__node_5_Metal_0"
    },
    {
      "mesh": 5,
      "name": "group5_Mid1_polySurface95_Clone__Clone__node_5_glass_0"
    },
    {
      "mesh": 6,
      "name": "group5_Mid1_polySurface95_Clone__Clone__node_5_whiteCity_0"
    },
    {
      "mesh": 7,
      "name": "group5_Mid1_polySurface95_Clone__Clone__node_5_defaultPolygonShader1_0"
    },
    {
      "mesh": 8,
      "name": "group5_Mid1_polySurface95_Clone__Clone__node_5_Default_Material_0"
    }
  ],
  "samplers": [
    {
      "magFilter": 9729,
      "minFilter": 9987,
      "wrapS": 10497,
      "wrapT": 10497
    }
  ],
  "scene": 0,
  "scenes": [
    {
      "name": "Sketchfab_Scene",
      "nodes": [
        0
      ]
    }
  ],
  "textures": [
    {
      "sampler": 0,
      "source": 0
    }
  ]
}
